<?xml version="1.0" encoding="UTF-8" standalone="no"?>
<svg
   xmlns:dc="http://purl.org/dc/elements/1.1/"
   xmlns:cc="http://creativecommons.org/ns#"
   xmlns:rdf="http://www.w3.org/1999/02/22-rdf-syntax-ns#"
   xmlns:svg="http://www.w3.org/2000/svg"
   xmlns="http://www.w3.org/2000/svg"
   xmlns:sodipodi="http://sodipodi.sourceforge.net/DTD/sodipodi-0.dtd"
   xmlns:inkscape="http://www.inkscape.org/namespaces/inkscape"
   width="128"
   height="128"
   viewBox="0 0 33.866666 33.866668"
   version="1.1"
   id="svg8"
   inkscape:export-filename="/home/sergio/dev/zacatrus/zacatrus_base/static/description/icon.png"
   inkscape:export-xdpi="96"
   inkscape:export-ydpi="96"
   sodipodi:docname="icon.svg"
   inkscape:version="1.0.2 (e86c870879, 2021-01-15)">
  <defs
     id="defs2">
    <clipPath
       clipPathUnits="userSpaceOnUse"
       id="clipPath34">
      <path
         d="M 0,595.276 H 841.89 V 0 H 0 Z"
         id="path32"
         inkscape:connector-curvature="0" />
    </clipPath>
    <clipPath
       clipPathUnits="userSpaceOnUse"
       id="clipPath1026">
      <path
         d="M 0,595.276 H 841.89 V 0 H 0 Z"
         id="path1024" />
    </clipPath>
    <clipPath
       clipPathUnits="userSpaceOnUse"
       id="clipPath2071">
      <path
         d="M 0,595.276 H 841.89 V 0 H 0 Z"
         id="path2069" />
    </clipPath>
  </defs>
  <sodipodi:namedview
     id="base"
     pagecolor="#ffffff"
     bordercolor="#666666"
     borderopacity="1.0"
     inkscape:pageopacity="0.0"
     inkscape:pageshadow="2"
     inkscape:zoom="3.0713209"
     inkscape:cx="7.5667951"
     inkscape:cy="53.242189"
     inkscape:document-units="mm"
     inkscape:current-layer="layer1"
     inkscape:document-rotation="0"
     showgrid="false"
     units="px"
     inkscape:window-width="1848"
     inkscape:window-height="1016"
     inkscape:window-x="72"
     inkscape:window-y="27"
     inkscape:window-maximized="1" />
  <metadata
     id="metadata5">
    <rdf:RDF>
      <cc:Work
         rdf:about="">
        <dc:format>image/svg+xml</dc:format>
        <dc:type
           rdf:resource="http://purl.org/dc/dcmitype/StillImage" />
        <dc:title></dc:title>
      </cc:Work>
    </rdf:RDF>
  </metadata>
  <g
     inkscape:label="Capa 1"
     inkscape:groupmode="layer"
     id="layer1">
    <rect
       style="fill:#ffffff;fill-opacity:0.999968;stroke:#ffffff;stroke-width:1.04783;stroke-linecap:round;stroke-linejoin:round;stroke-miterlimit:4;stroke-dasharray:none;stroke-opacity:1"
       id="rect3292"
       width="32.818836"
       height="32.818836"
       x="0.52391523"
       y="0.52391523"
       ry="3.6737201" />
    <g
       id="g2067"
       clip-path="url(#clipPath2071)"
       transform="matrix(0.16591863,0,0,-0.16591863,-53.296149,66.319395)">
      <g
         id="g2073"
         transform="translate(487.8918,321.2258)">
        <path
           d="m 0,0 c 0,-6.264 4.728,-21.744 8.176,-33.037 0.678,-2.259 1.341,-4.397 1.883,-6.234 0.15,-0.481 0.587,-0.813 1.084,-0.813 h 2.062 c 0.497,0 0.934,0.332 1.085,0.813 0.542,1.823 1.189,3.975 1.882,6.234 3.448,11.293 8.177,26.773 8.177,33.037 0,6.716 -5.452,12.182 -12.167,12.182 C 5.466,12.182 0,6.716 0,0"
           style="fill:#000000;fill-opacity:1;fill-rule:nonzero;stroke:none"
           id="path2075" />
      </g>
      <g
         id="g2077"
         transform="translate(500.088,277.0315)">
        <path
           d="m 0,0 c -4.186,0 -7.589,-3.403 -7.589,-7.59 0,-4.171 3.403,-7.574 7.589,-7.574 4.187,0 7.59,3.403 7.59,7.574 C 7.59,-3.403 4.187,0 0,0"
           style="fill:#000000;fill-opacity:1;fill-rule:nonzero;stroke:none"
           id="path2079" />
      </g>
      <g
         id="g2081"
         transform="translate(499.9298,246.6428)">
        <path
           d="m 0,0 c -1.035,0 -2.021,0.21 -2.92,0.586 v -16.847 c 0,-4.782 -3.877,-8.659 -8.66,-8.659 l -134.611,-0.029 c -4.783,0 -8.66,3.877 -8.66,8.659 v 134.57 c 0,4.783 3.877,8.659 8.66,8.659 l 134.611,0.03 c 4.783,0 8.66,-3.877 8.66,-8.659 v -16.25 c 0.981,0.255 2.004,0.405 3.064,0.405 1.053,0 2.07,-0.148 3.045,-0.401 v 16.246 c 0,8.143 -6.625,14.769 -14.769,14.769 l -134.611,-0.03 c -8.144,0 -14.769,-6.625 -14.769,-14.769 V -16.29 c 0,-8.144 6.625,-14.77 14.769,-14.77 l 134.611,0.03 c 8.144,0 14.769,6.626 14.769,14.769 V 0.712 C 2.219,0.26 1.141,0 0,0"
           style="fill:#000000;fill-opacity:1;fill-rule:nonzero;stroke:none"
           id="path2083" />
      </g>
      <g
         id="g2085"
         transform="translate(435.9699,330.7605)">
        <path
           d="m 0,0 -64.425,-80.36 v -10.016 h 84.913 c 9.788,0 13.886,4.098 13.886,13.887 v 13.658 H 19.805 v -8.877 c 0,-3.416 -1.822,-5.009 -5.008,-5.009 h -47.351 c -7.512,0 -11.61,-0.455 -11.61,-0.455 v 0.455 c 0,0 5.008,5.009 9.561,10.472 L 29.593,13.886 V 24.13 h -79.448 c -9.789,0 -13.886,-4.097 -13.886,-13.886 V -3.415 h 14.569 v 8.878 c 0,3.415 1.82,5.009 5.008,5.009 h 41.888 c 7.511,0 11.381,0.455 11.381,0.455 V 10.472 C 9.105,10.472 4.325,5.463 0,0"
           style="fill:#db3236;fill-opacity:1;fill-rule:nonzero;stroke:none"
           id="path2087" />
      </g>
    </g>
  </g>
</svg>
